<mxfile host="app.diagrams.net" modified="2022-05-15T15:36:03.244Z" agent="5.0 (Windows NT 10.0; Win64; x64) AppleWebKit/537.36 (KHTML, like Gecko) Chrome/101.0.4951.64 Safari/537.36 Edg/101.0.1210.47" etag="h3t8aYc6WcbhzJyHqGDj" version="18.0.5" type="github">
  <diagram id="qAdAPiamB1a2m4VUTkmI" name="Modelo de Dominio">
    <mxGraphModel dx="734" dy="468" grid="1" gridSize="10" guides="1" tooltips="1" connect="1" arrows="1" fold="1" page="1" pageScale="1" pageWidth="827" pageHeight="1169" math="0" shadow="0">
      <root>
        <mxCell id="0" />
        <mxCell id="1" parent="0" />
        <mxCell id="hMQtDpvq9qTP7VhT-ZI8-1" value="Sale" style="html=1;" parent="1" vertex="1">
          <mxGeometry x="320" y="220" width="110" height="50" as="geometry" />
        </mxCell>
      </root>
    </mxGraphModel>
  </diagram>
</mxfile>
